<?xml version="1.0" encoding="UTF-8" standalone="no"?>
<!-- Created with Inkscape (http://www.inkscape.org/) -->

<svg
   xmlns:dc="http://purl.org/dc/elements/1.1/"
   xmlns:cc="http://creativecommons.org/ns#"
   xmlns:rdf="http://www.w3.org/1999/02/22-rdf-syntax-ns#"
   xmlns:svg="http://www.w3.org/2000/svg"
   xmlns="http://www.w3.org/2000/svg"
   xmlns:sodipodi="http://sodipodi.sourceforge.net/DTD/sodipodi-0.dtd"
   xmlns:inkscape="http://www.inkscape.org/namespaces/inkscape"
   width="808"
   height="273.7262"
   viewBox="0 0 213.78332 72.423391"
   version="1.1"
   id="svg192"
   inkscape:version="0.92.4 (5da689c313, 2019-01-14)"
   sodipodi:docname="silgan holdings.svg">
  <defs
     id="defs186" />
  <sodipodi:namedview
     id="base"
     pagecolor="#ffffff"
     bordercolor="#666666"
     borderopacity="1.0"
     inkscape:pageopacity="0.0"
     inkscape:pageshadow="2"
     inkscape:zoom="1.8138958"
     inkscape:cx="402.99999"
     inkscape:cy="135.86308"
     inkscape:document-units="mm"
     inkscape:current-layer="layer1"
     showgrid="false"
     units="px"
     fit-margin-top="0"
     fit-margin-left="0"
     fit-margin-right="0"
     fit-margin-bottom="0"
     inkscape:window-width="1920"
     inkscape:window-height="1001"
     inkscape:window-x="-9"
     inkscape:window-y="-9"
     inkscape:window-maximized="1" />
  <metadata
     id="metadata189">
    <rdf:RDF>
      <cc:Work
         rdf:about="">
        <dc:format>image/svg+xml</dc:format>
        <dc:type
           rdf:resource="http://purl.org/dc/dcmitype/StillImage" />
        <dc:title></dc:title>
      </cc:Work>
    </rdf:RDF>
  </metadata>
  <g
     inkscape:label="Layer 1"
     inkscape:groupmode="layer"
     id="layer1"
     transform="translate(113.43065,-112.35705)">
    <g
       id="g282"
       transform="translate(0.26458717,-0.26458887)">
      <polyline
         transform="matrix(0.26458333,0,0,0.26458333,-113.43065,112.88622)"
         id="polyline14"
         points="49.37 126.69 49.37 0 101.8 0 49.37 126.69"
         class="b"
         style="fill:#747b82" />
      <polyline
         transform="matrix(0.26458333,0,0,0.26458333,-113.43065,112.88622)"
         id="polyline16"
         points="120.5 0 177.19 0 49.07 155.76 48.97 139.56 120.5 0"
         class="b"
         style="fill:#747b82" />
      <polyline
         transform="matrix(0.26458333,0,0,0.26458333,-113.43065,112.88622)"
         id="polyline18"
         points="193.42 .41 257.23 .41 49.07 183.9 48.97 167.4 193.42 .41"
         class="b"
         style="fill:#747b82" />
      <polyline
         transform="matrix(0.26458333,0,0,0.26458333,-113.43065,112.88622)"
         id="polyline20"
         points="0 267.08 209.04 77.26 209.24 99.27 67.27 267.08 0 267.08"
         class="b"
         style="fill:#747b82" />
      <polyline
         transform="matrix(0.26458333,0,0,0.26458333,-113.43065,112.88622)"
         id="polyline22"
         points="81.23 266.98 208.85 112.46 208.85 129.6 137.62 266.98 81.23 266.98"
         class="b"
         style="fill:#747b82" />
      <polyline
         transform="matrix(0.26458333,0,0,0.26458333,-113.43065,112.88622)"
         id="polyline24"
         points="157.5 266.67 208.85 141.43 208.85 266.67 157.5 266.67"
         class="b"
         style="fill:#747b82" />
      <path
         id="path26"
         d="m -35.190711,152.06572 c -4.339169,0 -7.855479,-3.69094 -7.855479,-8.24442 0,-4.55348 3.51631,-8.24441 7.855479,-8.24441 h 18.89918 v 6.10129 l -18.89918,-0.0185 c -1.137711,0 -2.061109,0.96837 -2.061109,2.159 0,1.19062 0.923398,2.16164 2.061109,2.16164 l 13.768909,-0.0741 c 4.339172,0 7.855482,3.69094 7.855482,8.24442 0,4.55348 -3.51631,8.24441 -7.855482,8.24441 h -20.47081 v -6.15685 l 20.47081,0.0741 c 1.137711,0 2.058461,-0.96837 2.058461,-2.16164 0,-1.19327 -0.92075,-2.16165 -2.058461,-2.16165 l -13.768909,0.0741"
         class="b"
         inkscape:connector-curvature="0"
         style="fill:#747b82;stroke-width:0.26458332" />
      <polyline
         transform="matrix(0.26458333,0,0,0.26458333,-113.43065,112.88622)"
         id="polyline28"
         points="387.92 107.99 412.45 85.77 387.92 85.56 387.92 107.99"
         class="b"
         style="fill:#747b82" />
      <polyline
         transform="matrix(0.26458333,0,0,0.26458333,-113.43065,112.88622)"
         id="polyline30"
         points="411.46 96.78 411.46 187.54 387.72 187.54 387.72 118.79 411.46 96.78"
         class="b"
         style="fill:#747b82" />
      <polyline
         transform="matrix(0.26458333,0,0,0.26458333,-113.43065,112.88622)"
         id="polyline32"
         points="428.67 187.12 428.67 85.56 451.83 85.56 451.83 164.27 517.32 164.07 517.32 187.12 428.67 187.12"
         class="b"
         style="fill:#747b82" />
      <path
         id="path34"
         d="m 27.134539,141.63055 15.28762,-0.005 -0.0265,-6.04573 -15.39346,-0.0132 c -7.7761,0 -12.78466,6.04044 -12.78466,13.42232 0,2.04258 0.43656,3.98197 1.21708,5.715 h 7.01146 c -4.94771,-4.82336 -2.38125,-13.07042 4.68577,-13.07042"
         class="b"
         inkscape:connector-curvature="0"
         style="fill:#747b82;stroke-width:0.26458332" />
      <polyline
         transform="matrix(0.26458333,0,0,0.26458333,-113.43065,112.88622)"
         id="polyline36"
         points="531.18 124.19 588.55 124.4 588.55 187.33 523.06 187.12 523.06 163.86 566.2 163.86 566.2 145.58 531.18 145.58 531.18 124.19"
         class="b"
         style="fill:#747b82" />
      <polyline
         transform="matrix(0.26458333,0,0,0.26458333,-113.43065,112.88622)"
         id="polyline38"
         points="700.94 187.12 701.34 86.18 722.31 86.18 779.3 153.89 779.3 86.39 800.27 86.18 800.27 187.12 781.08 187.12 722.11 118.79 722.11 187.12 700.94 187.12"
         class="b"
         style="fill:#747b82" />
      <path
         id="path40"
         d="m 43.755659,162.39505 v -5.49275 l 10.10444,-21.37568 h 6.22829 l 11.46704,26.87108 h -6.28121 l -2.88131,-6.15421 h -11.51731 l -3.03477,6.15421 h -4.08517 m 9.21544,-10.71563 7.69673,0.0556 -3.7174,-8.62807 -3.97669,8.5725 z"
         class="b"
         inkscape:connector-curvature="0"
         style="fill:#747b82;stroke-width:0.26458332" />
      <text
         y="183.96654"
         x="-55.902306"
         id="text44"
         class="c"
         style="font-size:7.9375px;font-family:HelveticaNeueLTStd-Roman, 'Helvetica Neue LT Std';fill:#747b82;stroke-width:0.26458332">
        <tspan
           style="stroke-width:0.26458332"
           id="tspan42"
           y="183.96654"
           x="-55.902306">®</tspan>
      </text>
      <path
         style="fill:#747b82;stroke-width:0.26458332"
         inkscape:connector-curvature="0"
         class="b"
         d="m -41.011552,165.48539 h 1.058341 v 3.19352 h 3.971391 v -3.19352 h 1.058338 v 7.72848 h -1.058338 v -3.61421 h -3.971391 v 3.61421 h -1.058341 z"
         id="path46" />
      <path
         style="fill:#747b82;stroke-width:0.26458332"
         inkscape:connector-curvature="0"
         class="b"
         d="m -21.50382,166.5887 c 0.510648,0.68527 0.767289,1.55839 0.767289,2.62467 0,1.15358 -0.29368,2.11402 -0.878409,2.87866 -0.687922,0.89694 -1.66688,1.34673 -2.939521,1.34673 -1.187979,0 -2.124609,-0.39423 -2.804591,-1.17739 -0.605888,-0.75671 -0.910159,-1.7145 -0.910159,-2.87338 0,-1.0451 0.259289,-1.9394 0.77787,-2.68287 0.66675,-0.9525 1.653651,-1.4314 2.955401,-1.4314 1.30175,0 2.375958,0.43921 3.029479,1.31498 z m -0.923391,4.92654 c 0.41275,-0.66146 0.616479,-1.42346 0.616479,-2.28335 0,-0.91017 -0.23813,-1.64042 -0.711729,-2.19605 -0.47625,-0.55297 -1.124479,-0.83079 -1.949979,-0.83079 -0.8255,0 -1.45257,0.27517 -1.957922,0.8255 -0.505349,0.54769 -0.756708,1.35996 -0.756708,2.42888 0,0.85725 0.216958,1.57956 0.65088,2.16694 0.433909,0.58737 1.13506,0.8837 2.106078,0.8837 0.971021,0 1.590151,-0.33073 2.002901,-0.99218 z"
         id="path48" />
      <path
         style="fill:#747b82;stroke-width:0.26458332"
         inkscape:connector-curvature="0"
         class="b"
         d="m -14.103422,165.48539 h 1.045101 v 6.80773 h 3.8787896 v 0.92075 h -4.9238906 z"
         id="path50" />
      <path
         style="fill:#747b82;stroke-width:0.26458332"
         inkscape:connector-curvature="0"
         class="b"
         d="m -3.6100514,165.48539 h 3.08768997 c 1.04775,0 1.86267003,0.3757 2.43946003,1.12977 0.51594,0.67998 0.77258,1.5531 0.77258,2.61408 0,0.82021 -0.15081,1.56104 -0.45773,2.22515 -0.5371,1.1721 -1.45785003,1.75683 -2.76754003,1.75683 H -3.6126914 v -7.72848 z m 2.88395997,6.83418 c 0.34661,0 0.62971,-0.037 0.85461,-0.11112 0.39952,-0.13758 0.72495,-0.39952 0.97895003,-0.78846 0.20109,-0.31221 0.34661,-0.71173 0.43657,-1.20121 0.0529,-0.29104 0.0767,-0.56091 0.0767,-0.80962 0,-0.95779 -0.18521,-1.70127 -0.55828,-2.23044 -0.37306003,-0.52917 -0.97102003,-0.79375 -1.79916003,-0.79375 H -2.5517414 v 5.93196 h 1.82561997 z"
         id="path52" />
      <path
         style="fill:#747b82;stroke-width:0.26458332"
         inkscape:connector-curvature="0"
         class="b"
         d="m 8.8121386,165.48539 h 1.05833 v 7.72848 h -1.05833 z"
         id="path54" />
      <path
         style="fill:#747b82;stroke-width:0.26458332"
         inkscape:connector-curvature="0"
         class="b"
         d="m 17.889989,165.48539 h 1.23296 l 3.85498,6.24416 v -6.24416 h 1.00013 v 7.72848 h -1.17475 l -3.91055,-6.23623 v 6.23623 h -1.00012 v -7.72848 z"
         id="path56" />
      <path
         style="fill:#747b82;stroke-width:0.26458332"
         inkscape:connector-curvature="0"
         class="b"
         d="m 37.133139,165.70499 c 0.75671,0.40217 1.21973,1.11125 1.38906,2.11931 h -1.03716 c -0.12436,-0.56621 -0.37836,-0.97631 -0.7673,-1.23296 -0.38629,-0.25664 -0.87577,-0.38629 -1.46843,-0.38629 -0.70115,0 -1.29117,0.26723 -1.77007,0.80434 -0.47889,0.5371 -0.71966,1.33614 -0.71966,2.39712 0,0.91811 0.19843,1.66688 0.59266,2.24367 0.39688,0.57679 1.03982,0.86519 1.93411,0.86519 0.68527,0 1.24883,-0.20373 1.69862,-0.60855 0.44979,-0.40481 0.67734,-1.06098 0.68792,-1.9632 h -2.42094 v -0.86784 h 3.39196 v 4.13544 h -0.67204 l -0.25136,-0.99483 c -0.34925,0.38893 -0.65616,0.65881 -0.92604,0.80962 -0.45243,0.25929 -1.02658,0.38894 -1.72243,0.38894 -0.89959,0 -1.67482,-0.29633 -2.32305,-0.889 -0.70643,-0.74348 -1.06098,-1.76477 -1.06098,-3.06123 0,-1.29646 0.34661,-2.32304 1.03717,-3.08769 0.65617,-0.73025 1.50548,-1.09537 2.55058,-1.09537 0.71438,0 1.3335,0.14023 1.85738,0.42068 z"
         id="path58" />
      <path
         style="fill:#747b82;stroke-width:0.26458332"
         inkscape:connector-curvature="0"
         class="b"
         d="m 46.438539,170.71884 c 0.0238,0.43921 0.1217,0.79375 0.29897,1.06628 0.33603,0.51329 0.9234,0.76993 1.77007,0.76993 0.37835,0 0.72231,-0.0556 1.03452,-0.16933 0.6006,-0.21696 0.90223,-0.6059 0.90223,-1.16946 0,-0.42069 -0.127,-0.71967 -0.381,-0.89958 -0.25929,-0.17463 -0.66146,-0.32809 -1.21179,-0.45773 l -1.01336,-0.23548 c -0.66146,-0.15346 -1.13242,-0.32279 -1.40758,-0.51065 -0.47625,-0.32279 -0.71438,-0.80433 -0.71438,-1.44727 0,-0.69321 0.23284,-1.26471 0.70115,-1.70921 0.46831,-0.4445 1.12977,-0.66675 1.98702,-0.66675 0.78846,0 1.45785,0.1958 2.01083,0.58738 0.55034,0.39158 0.8255,1.016 0.8255,1.8759 h -0.98425 c -0.0503,-0.41275 -0.15875,-0.73025 -0.32279,-0.9525 -0.30692,-0.40217 -0.8255,-0.60325 -1.55839,-0.60325 -0.59267,0 -1.016,0.12964 -1.2753,0.38893 -0.25929,0.25929 -0.38893,0.56092 -0.38893,0.90488 0,0.37835 0.15345,0.65616 0.46037,0.83079 0.20108,0.11377 0.65352,0.254 1.35996,0.42069 l 1.0504,0.24871 c 0.508,0.11906 0.89693,0.2831 1.1721,0.48947 0.47625,0.36248 0.71437,0.88636 0.71437,1.57428 0,0.85725 -0.30427,1.46843 -0.91016,1.8362 -0.6059,0.36777 -1.31234,0.55298 -2.11667,0.55298 -0.93662,0 -1.66952,-0.24606 -2.20133,-0.73818 -0.53181,-0.48684 -0.79111,-1.1483 -0.78052,-1.98173 h 0.98425 z"
         id="path60" />
      <path
         style="fill:#747b82;stroke-width:0.26458332"
         inkscape:connector-curvature="0"
         class="b"
         d="m 69.743039,165.48539 h 1.05833 v 7.72848 h -1.05833 z"
         id="path62" />
      <path
         style="fill:#747b82;stroke-width:0.26458332"
         inkscape:connector-curvature="0"
         class="b"
         d="m 77.886909,165.48539 h 1.23296 l 3.85498,6.24416 v -6.24416 h 1.00012 v 7.72848 h -1.17475 l -3.91054,-6.23623 v 6.23623 h -1.00012 v -7.72848 z"
         id="path64" />
      <path
         style="fill:#747b82;stroke-width:0.26458332"
         inkscape:connector-curvature="0"
         class="b"
         d="m 96.518869,166.0463 c 0.53446,0.51594 0.83079,1.10067 0.889,1.75684 h -1.01865 c -0.11377,-0.49742 -0.34131,-0.89165 -0.67998,-1.18269 -0.33866,-0.29104 -0.81491,-0.43656 -1.42875,-0.43656 -0.74877,0 -1.35202,0.26723 -1.80975,0.80168 -0.46037,0.53711 -0.69056,1.35467 -0.69056,2.46327 0,0.90488 0.20638,1.64042 0.62177,2.20398 0.4154,0.56357 1.03452,0.84402 1.85738,0.84402 0.7567,0 1.3335,-0.29633 1.73037,-0.889 0.20902,-0.3122 0.36777,-0.72231 0.46831,-1.23031 h 1.0213 c -0.09,0.81227 -0.38894,1.4949 -0.8943,2.04523 -0.60589,0.66146 -1.4261,0.99483 -2.45268,0.99483 -0.889,0 -1.63248,-0.27252 -2.23573,-0.81491 -0.79375,-0.71967 -1.19063,-1.83092 -1.19063,-3.33111 0,-1.14035 0.29898,-2.07433 0.89429,-2.80723 0.64559,-0.7911 1.53459,-1.18797 2.667,-1.18797 0.96838,0 1.71715,0.25664 2.25161,0.77258 z"
         id="path66" />
      <path
         style="fill:#747b82;stroke-width:0.26458332"
         inkscape:connector-curvature="0"
         class="b"
         d="m 98.725489,172.06557 h 1.09802 v 1.14565 h -1.09802 z"
         id="path68" />
    </g>
  </g>
</svg>
